# xmcd
#
# Track frame offsets: 
#        150
#        11498
#        23438
#        34313
#        47243
#        58678
#        70338
#        80096
#        92226
#        103162
#        116716
#        128729
#        142100
#        155560
#        167380
#        178520
#        190931
#        204935
#        216291
#        229149
#        240623
#        252720
#        263458
#        275580
#        286866
#
# Disc length: 3996 seconds
#
# Revision: 0
# Processed by: cddbd v1.5.2PL0 Copyright (c) Steve Scherf et al.
# Submitted via: ExactAudioCopy v1.0b3
#
DISCID=6d0f9a19
DTITLE=Various Artist - The R&B Years 1953 Disk 4
DYEAR=1900
DGENRE=R&B
TTITLE0=Joe Liggins - The Big Dipper
TTITLE1=B.B. King - Please Hurry Home
TTITLE2=Willie Mabon - You're A Fool
TTITLE3=Ruth Brown - The Tears Keep Tumbling Down
TTITLE4=Jimmy Liggins - Drunk
TTITLE5=Christine Kittrell - Every Night In The Week
TTITLE6=Fats Domino - Rose Mary
TTITLE7=Otis Blackwell - Daddy Rollin' Stone
TTITLE8=Dinah Washington - TV Is The Thing This Year
TTITLE9=Bobby Bland - No Blow, No Show
TTITLE10=Margie Day - Snatchin' It Back
TTITLE11=Clyde McPhatter - The Drifters - Money Honey
TTITLE12=Louis Jordan - I Want You To Be My Baby
TTITLE13=Memphis Slim - The Come Back
TTITLE14=Linda Hayes - Take Me Back
TTITLE15=Joe Morris - Al Savage - I Had A Notion
TTITLE16=Kid King - Banana Split
TTITLE17=Big Maybelle - My Country Man
TTITLE18=Floyd Dixon - Hole In The Wall
TTITLE19=Jimmy Witherspoon - Move Me Baby
TTITLE20=Four Blazers - Perfect Woman
TTITLE21=Marvin and Johnny - Baby Doll
TTITLE22=Clarence Garlow - Route 90
TTITLE23=Clarence "Gatemouth" Brown - Gate Walks The Board
TTITLE24=Faye Adams - I'll Be True
EXTD=
EXTT0=
EXTT1=
EXTT2=
EXTT3=
EXTT4=
EXTT5=
EXTT6=
EXTT7=
EXTT8=
EXTT9=
EXTT10=
EXTT11=
EXTT12=
EXTT13=
EXTT14=
EXTT15=
EXTT16=
EXTT17=
EXTT18=
EXTT19=
EXTT20=
EXTT21=
EXTT22=
EXTT23=
EXTT24=
PLAYORDER=
